<svg style="cursor:pointer;" width="300" height="180" viewBox="0 0 1160 486" fill="none" xmlns="http://www.w3.org/2000/svg">
<g id="greetings">
<g id="person" clip-path="url(#clip0_1_78)">
<path id="Vector" d="M883.382 236.258H308.805C306.366 236.258 304.026 237.227 302.301 238.952C300.576 240.677 299.607 243.017 299.607 245.457C299.607 247.896 300.576 250.236 302.301 251.961C304.026 253.686 306.366 254.655 308.805 254.655H325.08V474.721C325.08 477.161 326.05 479.5 327.775 481.225C329.5 482.951 331.84 483.92 334.279 483.92C336.719 483.92 339.059 482.951 340.784 481.225C342.509 479.5 343.478 477.161 343.478 474.721L343.618 254.655H804.774L847.294 474.721C847.294 477.161 848.263 479.5 849.988 481.225C851.713 482.951 854.053 483.92 856.493 483.92C858.932 483.92 861.272 482.951 862.997 481.225C864.722 479.5 865.691 477.161 865.691 474.721L868.368 254.655H883.382C885.821 254.655 888.161 253.686 889.886 251.961C891.611 250.236 892.58 247.896 892.58 245.457C892.58 243.017 891.611 240.677 889.886 238.952C888.161 237.227 885.821 236.258 883.382 236.258Z" fill="#222831"/>
<path id="Vector_2" d="M408.401 195.269V234.223H310.804C308.247 234.312 305.696 233.897 303.299 233C300.902 232.104 298.705 230.744 296.833 228.998C294.962 227.252 293.452 225.155 292.391 222.826C291.33 220.497 290.738 217.982 290.649 215.424C290.56 212.866 290.976 210.316 291.873 207.918C292.769 205.521 294.129 203.324 295.875 201.453C297.621 199.581 299.718 198.072 302.047 197.011C304.376 195.95 306.891 195.358 309.449 195.269C309.901 195.253 310.352 195.253 310.804 195.269L408.401 195.269Z" fill="#F2F2F2"/>
<path id="Vector_3" d="M410.798 233.924C410.798 234.321 410.64 234.702 410.359 234.983C410.078 235.264 409.697 235.422 409.3 235.422H309.066C303.625 235.418 298.408 233.254 294.561 229.405C290.715 225.556 288.554 220.337 288.554 214.896C288.554 209.455 290.715 204.236 294.561 200.387C298.408 196.538 303.625 194.374 309.066 194.37H409.3C409.497 194.369 409.692 194.408 409.874 194.483C410.056 194.558 410.222 194.668 410.362 194.807C410.501 194.946 410.612 195.112 410.687 195.294C410.763 195.476 410.802 195.671 410.802 195.868C410.802 196.065 410.763 196.26 410.687 196.442C410.612 196.624 410.501 196.79 410.362 196.929C410.222 197.068 410.056 197.178 409.874 197.253C409.692 197.328 409.497 197.367 409.3 197.366H309.066C304.422 197.373 299.97 199.223 296.688 202.51C293.406 205.797 291.563 210.251 291.563 214.896C291.563 219.54 293.406 223.995 296.688 227.282C299.97 230.569 304.422 232.419 309.066 232.426H409.3C409.697 232.426 410.078 232.584 410.359 232.865C410.64 233.146 410.798 233.527 410.798 233.924Z" fill="#6C63FF"/>
<path id="Vector_4" d="M408.401 204.258H303.522C303.443 204.259 303.367 204.228 303.311 204.172C303.254 204.116 303.222 204.041 303.221 203.961C303.22 203.882 303.251 203.806 303.307 203.749C303.362 203.692 303.438 203.66 303.517 203.659H408.401C408.48 203.66 408.555 203.692 408.61 203.748C408.666 203.804 408.697 203.88 408.697 203.959C408.697 204.038 408.666 204.113 408.61 204.169C408.555 204.226 408.48 204.258 408.401 204.258Z" fill="#CCCCCC"/>
<path id="Vector_5" d="M408.401 211.45H303.522C303.443 211.45 303.367 211.419 303.311 211.364C303.254 211.308 303.222 211.232 303.221 211.153C303.22 211.074 303.251 210.998 303.307 210.941C303.362 210.884 303.438 210.852 303.517 210.851H408.401C408.48 210.851 408.555 210.883 408.61 210.94C408.666 210.996 408.697 211.071 408.697 211.15C408.697 211.229 408.666 211.305 408.61 211.361C408.555 211.417 408.48 211.449 408.401 211.45Z" fill="#CCCCCC"/>
<path id="Vector_6" d="M408.401 218.642H303.522C303.443 218.642 303.367 218.611 303.311 218.555C303.254 218.5 303.222 218.424 303.221 218.345C303.22 218.265 303.251 218.189 303.307 218.132C303.362 218.076 303.438 218.043 303.517 218.042H408.401C408.48 218.043 408.555 218.075 408.61 218.131C408.666 218.187 408.697 218.263 408.697 218.342C408.697 218.421 408.666 218.497 408.61 218.553C408.555 218.609 408.48 218.641 408.401 218.642Z" fill="#CCCCCC"/>
<path id="Vector_7" d="M408.401 225.833H303.522C303.443 225.834 303.367 225.803 303.311 225.747C303.254 225.691 303.222 225.616 303.221 225.536C303.22 225.457 303.251 225.381 303.307 225.324C303.362 225.267 303.438 225.235 303.517 225.234H408.401C408.48 225.235 408.555 225.267 408.61 225.323C408.666 225.379 408.697 225.455 408.697 225.534C408.697 225.612 408.666 225.688 408.61 225.744C408.555 225.8 408.48 225.832 408.401 225.833Z" fill="#CCCCCC"/>
<path id="Vector_8" d="M390.003 154.228V193.182H292.407C287.241 193.362 282.215 191.482 278.436 187.957C274.656 184.431 272.431 179.548 272.252 174.383C272.072 169.217 273.952 164.191 277.477 160.412C281.003 156.632 285.886 154.407 291.051 154.228C291.503 154.212 291.955 154.212 292.407 154.228H390.003Z" fill="#F2F2F2"/>
<path id="Vector_9" d="M392.4 192.883C392.4 193.28 392.242 193.661 391.961 193.942C391.68 194.223 391.299 194.381 390.902 194.381H290.668C285.225 194.381 280.004 192.218 276.154 188.369C272.305 184.52 270.142 179.299 270.142 173.855C270.142 168.411 272.305 163.19 276.154 159.341C280.004 155.491 285.225 153.329 290.668 153.329H390.902C391.099 153.329 391.293 153.367 391.475 153.443C391.657 153.518 391.822 153.628 391.961 153.768C392.1 153.907 392.211 154.072 392.286 154.254C392.361 154.435 392.4 154.63 392.4 154.827C392.4 155.024 392.361 155.219 392.286 155.4C392.211 155.582 392.1 155.747 391.961 155.886C391.822 156.026 391.657 156.136 391.475 156.211C391.293 156.286 391.099 156.325 390.902 156.325H290.668C286.019 156.325 281.561 158.172 278.273 161.46C274.986 164.747 273.139 169.206 273.139 173.855C273.139 178.504 274.986 182.963 278.273 186.25C281.561 189.538 286.019 191.384 290.668 191.384H390.902C391.299 191.385 391.68 191.543 391.961 191.823C392.242 192.104 392.4 192.485 392.4 192.883Z" fill="#3F3D56"/>
<path id="Vector_10" d="M390.003 163.217H285.125C285.045 163.218 284.969 163.187 284.913 163.131C284.856 163.075 284.824 163 284.823 162.92C284.823 162.841 284.853 162.765 284.909 162.708C284.964 162.651 285.04 162.619 285.119 162.618H390.003C390.082 162.619 390.157 162.651 390.213 162.707C390.268 162.763 390.299 162.839 390.299 162.918C390.299 162.996 390.268 163.072 390.213 163.128C390.157 163.184 390.082 163.216 390.003 163.217Z" fill="#CCCCCC"/>
<path id="Vector_11" d="M390.003 170.409H285.125C285.045 170.409 284.969 170.378 284.913 170.323C284.856 170.267 284.824 170.191 284.823 170.112C284.823 170.033 284.853 169.956 284.909 169.9C284.964 169.843 285.04 169.811 285.119 169.81H390.003C390.082 169.81 390.157 169.842 390.213 169.898C390.268 169.954 390.299 170.03 390.299 170.109C390.299 170.188 390.268 170.264 390.213 170.32C390.157 170.376 390.082 170.408 390.003 170.409Z" fill="#CCCCCC"/>
<path id="Vector_12" d="M390.003 177.6H285.125C285.045 177.601 284.969 177.57 284.913 177.514C284.856 177.459 284.824 177.383 284.823 177.304C284.823 177.224 284.853 177.148 284.909 177.091C284.964 177.035 285.04 177.002 285.119 177.001H390.003C390.082 177.002 390.157 177.034 390.213 177.09C390.268 177.146 390.299 177.222 390.299 177.301C390.299 177.38 390.268 177.456 390.213 177.512C390.157 177.568 390.082 177.6 390.003 177.6Z" fill="#CCCCCC"/>
<path id="Vector_13" d="M390.003 184.792H285.125C285.045 184.792 284.969 184.761 284.913 184.706C284.856 184.65 284.824 184.574 284.823 184.495C284.823 184.416 284.853 184.34 284.909 184.283C284.964 184.226 285.04 184.194 285.119 184.193H390.003C390.082 184.194 390.157 184.225 390.213 184.282C390.268 184.338 390.299 184.413 390.299 184.492C390.299 184.571 390.268 184.647 390.213 184.703C390.157 184.759 390.082 184.791 390.003 184.792Z" fill="#CCCCCC"/>
<path id="Vector_14" d="M503.537 374.102V340.137C503.537 338.635 502.94 337.195 501.879 336.134C500.817 335.072 499.377 334.476 497.876 334.476H369.092C367.59 334.476 366.151 335.072 365.089 336.134C364.027 337.195 363.431 338.635 363.431 340.137V374.102H503.537Z" fill="#00ADB5"/>
<path id="Vector_15" d="M503.537 386.839H363.431V430.71H503.537V386.839Z" fill="#00ADB5"/>
<path id="Vector_16" d="M363.431 443.447V477.412C363.431 478.914 364.027 480.353 365.089 481.415C366.151 482.477 367.59 483.073 369.092 483.073H497.876C499.377 483.073 500.817 482.477 501.879 481.415C502.94 480.353 503.537 478.914 503.537 477.412V443.447H363.431Z" fill="#00ADB5"/>
<path id="Vector_17" d="M432.776 359.95C435.121 359.95 437.022 358.049 437.022 355.704C437.022 353.359 435.121 351.458 432.776 351.458C430.432 351.458 428.531 353.359 428.531 355.704C428.531 358.049 430.432 359.95 432.776 359.95Z" fill="white"/>
<path id="Vector_18" d="M432.776 416.558C435.121 416.558 437.022 414.657 437.022 412.312C437.022 409.968 435.121 408.067 432.776 408.067C430.432 408.067 428.531 409.968 428.531 412.312C428.531 414.657 430.432 416.558 432.776 416.558Z" fill="white"/>
<path id="Vector_19" d="M433.004 471.968C435.349 471.968 437.249 470.067 437.249 467.722C437.249 465.377 435.349 463.477 433.004 463.477C430.659 463.477 428.758 465.377 428.758 467.722C428.758 470.067 430.659 471.968 433.004 471.968Z" fill="white"/>
<path id="Vector_20" d="M487.652 295.749V334.704H390.056C384.893 334.88 379.871 332.998 376.094 329.473C372.317 325.948 370.094 321.067 369.915 315.904C369.735 310.741 371.612 305.717 375.135 301.938C378.658 298.158 383.537 295.932 388.7 295.749C389.152 295.733 389.604 295.733 390.056 295.749H487.652Z" fill="#F2F2F2"/>
<path id="Vector_21" d="M490.05 334.404C490.05 334.801 489.892 335.182 489.611 335.463C489.33 335.744 488.949 335.902 488.552 335.902H388.318C382.875 335.903 377.655 333.743 373.805 329.896C369.955 326.049 367.79 320.831 367.787 315.388C367.784 309.946 369.942 304.725 373.787 300.873C377.633 297.022 382.851 294.855 388.293 294.85H488.552C488.749 294.849 488.944 294.888 489.126 294.963C489.308 295.038 489.474 295.148 489.613 295.287C489.753 295.426 489.864 295.592 489.939 295.774C490.015 295.956 490.054 296.151 490.054 296.348C490.054 296.545 490.015 296.74 489.939 296.922C489.864 297.104 489.753 297.27 489.613 297.409C489.474 297.548 489.308 297.658 489.126 297.733C488.944 297.808 488.749 297.847 488.552 297.846H388.318C383.673 297.852 379.22 299.702 375.938 302.989C372.655 306.276 370.811 310.731 370.811 315.376C370.811 320.021 372.655 324.476 375.938 327.763C379.22 331.05 383.673 332.9 388.318 332.906H488.552C488.949 332.906 489.33 333.064 489.611 333.345C489.892 333.626 490.05 334.007 490.05 334.404Z" fill="#3F3D56"/>
<path id="Vector_22" d="M487.652 304.738H382.774C382.695 304.739 382.619 304.708 382.562 304.652C382.506 304.596 382.474 304.521 382.473 304.441C382.472 304.362 382.503 304.286 382.559 304.229C382.614 304.172 382.69 304.14 382.769 304.139H487.653C487.731 304.14 487.807 304.172 487.863 304.228C487.918 304.284 487.949 304.36 487.949 304.439C487.949 304.518 487.918 304.593 487.863 304.649C487.807 304.706 487.731 304.738 487.652 304.738Z" fill="#CCCCCC"/>
<path id="Vector_23" d="M487.652 311.93H382.774C382.695 311.93 382.619 311.899 382.562 311.844C382.506 311.788 382.474 311.712 382.473 311.633C382.472 311.554 382.503 311.478 382.559 311.421C382.614 311.364 382.69 311.332 382.769 311.331H487.653C487.731 311.332 487.807 311.363 487.863 311.42C487.918 311.476 487.949 311.551 487.949 311.63C487.949 311.709 487.918 311.785 487.863 311.841C487.807 311.897 487.731 311.929 487.652 311.93Z" fill="#CCCCCC"/>
<path id="Vector_24" d="M487.652 319.122H382.774C382.695 319.122 382.619 319.091 382.562 319.035C382.506 318.98 382.474 318.904 382.473 318.825C382.472 318.746 382.503 318.669 382.559 318.613C382.614 318.556 382.69 318.523 382.769 318.522H487.653C487.731 318.523 487.807 318.555 487.863 318.611C487.918 318.667 487.949 318.743 487.949 318.822C487.949 318.901 487.918 318.977 487.863 319.033C487.807 319.089 487.731 319.121 487.652 319.122Z" fill="#CCCCCC"/>
<path id="Vector_25" d="M487.652 326.313H382.774C382.695 326.314 382.619 326.283 382.562 326.227C382.506 326.171 382.474 326.096 382.473 326.016C382.472 325.937 382.503 325.861 382.559 325.804C382.614 325.747 382.69 325.715 382.769 325.714H487.653C487.731 325.715 487.807 325.747 487.863 325.803C487.918 325.859 487.949 325.935 487.949 326.014C487.949 326.093 487.918 326.168 487.863 326.224C487.807 326.281 487.731 326.312 487.652 326.313Z" fill="#CCCCCC"/>
<path id="Vector_26" d="M373.031 141.232H328.565C328.143 141.232 327.727 141.329 327.348 141.515L316.125 147.134C315.756 147.291 315.441 147.553 315.22 147.888C314.998 148.222 314.88 148.615 314.88 149.016C314.88 149.417 314.998 149.81 315.22 150.144C315.441 150.479 315.756 150.741 316.125 150.898L327.348 156.517C327.727 156.703 328.143 156.8 328.565 156.8H373.031C373.644 156.835 374.246 156.628 374.707 156.222C375.168 155.817 375.45 155.247 375.494 154.634V143.398C375.45 142.785 375.168 142.215 374.707 141.81C374.246 141.404 373.644 141.197 373.031 141.232Z" fill="#3F3D56"/>
<path id="Vector_27" d="M375.494 143.398V154.634C375.45 155.247 375.168 155.817 374.707 156.223C374.246 156.628 373.644 156.835 373.031 156.8H364.172V141.232H373.031C373.644 141.197 374.246 141.404 374.707 141.81C375.168 142.215 375.45 142.785 375.494 143.398Z" fill="#6C63FF"/>
<path id="Vector_28" d="M106.444 361.412C112.17 363.424 118.317 363.928 124.294 362.876C130.271 361.823 135.876 359.248 140.57 355.4C152.522 345.368 156.27 328.84 159.319 313.536C162.325 298.448 165.332 283.359 168.338 268.27L149.456 281.272C135.877 290.622 121.992 300.271 112.59 313.814C103.188 327.357 99.0842 345.844 106.638 360.498" fill="#47D147"/>
<path id="Vector_29" d="M108.058 416.216C106.147 402.295 104.182 388.196 105.523 374.126C106.713 361.63 110.525 349.425 118.287 339.418C122.406 334.117 127.419 329.574 133.1 325.995C134.581 325.06 135.944 327.408 134.469 328.339C124.64 334.551 117.038 343.724 112.758 354.535C108.031 366.558 107.272 379.663 108.087 392.435C108.579 400.158 109.623 407.831 110.675 415.494C110.758 415.841 110.707 416.206 110.531 416.516C110.355 416.826 110.068 417.057 109.728 417.163C109.381 417.257 109.011 417.21 108.698 417.032C108.386 416.855 108.156 416.562 108.058 416.216Z" fill="#F2F2F2"/>
<path id="Vector_30" d="M126.466 391.583C128.921 395.315 132.297 398.352 136.267 400.401C140.237 402.45 144.668 403.442 149.132 403.281C160.607 402.737 170.172 394.728 178.783 387.126L204.253 364.638L187.396 363.831C175.274 363.251 162.839 362.71 151.293 366.448C139.747 370.186 129.098 379.183 126.987 391.134" fill="#47D147"/>
<path id="Vector_31" d="M102.657 424.218C111.856 407.942 122.525 389.853 141.59 384.071C146.891 382.469 152.449 381.895 157.966 382.38C159.704 382.53 159.27 385.21 157.535 385.061C148.288 384.293 139.059 386.735 131.402 391.974C124.033 396.99 118.296 403.963 113.44 411.357C110.466 415.887 107.801 420.608 105.137 425.323C104.285 426.83 101.796 425.743 102.657 424.218Z" fill="#F2F2F2"/>
<path id="Vector_32" d="M87.9186 441.35C88.2286 437.759 89.5179 434.321 91.6463 431.412C93.7747 428.503 96.6606 426.234 99.9895 424.852V415.442H115.772V425.148C118.937 426.598 121.661 428.862 123.666 431.708C125.671 434.554 126.885 437.881 127.185 441.35L130.896 484.488H84.2076L87.9186 441.35Z" fill="#00ADB5"/>
<path id="Vector_33" d="M624.636 235.373L619.942 233.396L616.721 209.861H573.832L570.341 233.3L566.141 235.4C565.94 235.501 565.778 235.666 565.683 235.87C565.588 236.073 565.564 236.303 565.616 236.522C565.668 236.74 565.791 236.935 565.968 237.075C566.144 237.214 566.362 237.29 566.587 237.29H624.249C624.48 237.29 624.703 237.21 624.881 237.064C625.059 236.919 625.182 236.716 625.227 236.49C625.273 236.264 625.239 236.03 625.131 235.826C625.023 235.623 624.849 235.463 624.636 235.373Z" fill="#393E46"/>
<path id="Vector_34" d="M700.853 212.992H490.17C489.065 212.99 488.006 212.549 487.225 211.766C486.444 210.984 486.006 209.924 486.006 208.818V179.109H705.018V208.818C705.018 209.924 704.579 210.984 703.799 211.766C703.018 212.549 701.959 212.99 700.853 212.992Z" fill="#222831"/>
<path id="Vector_35" d="M705.238 193.15H485.813V66.0317C485.815 64.6976 486.346 63.4187 487.289 62.4754C488.232 61.5321 489.511 61.0015 490.845 61H700.206C701.54 61.0015 702.819 61.5321 703.763 62.4754C704.706 63.4187 705.237 64.6976 705.238 66.0317L705.238 193.15Z" fill="#3F3D56"/>
<path id="Vector_36" d="M692.133 183.924H498.919C497.89 183.923 496.904 183.514 496.177 182.787C495.45 182.06 495.041 181.074 495.04 180.045V74.1054C495.041 73.0769 495.45 72.0908 496.177 71.3636C496.904 70.6363 497.89 70.2272 498.919 70.2261H692.133C693.161 70.2272 694.147 70.6363 694.874 71.3636C695.602 72.0908 696.011 73.0769 696.012 74.1054V180.045C696.011 181.074 695.602 182.06 694.874 182.787C694.147 183.514 693.161 183.923 692.133 183.924Z" fill="white"/>
<path id="Vector_37" d="M641.243 221.305C642.49 220.153 643.975 219.288 645.593 218.772C647.211 218.255 648.922 218.1 650.607 218.317C652.291 218.533 653.907 219.117 655.342 220.026C656.776 220.935 657.994 222.147 658.909 223.577L685.044 218.931L691.741 234.124L654.742 240.167C652.237 241.546 649.313 241.957 646.525 241.324C643.737 240.691 641.278 239.057 639.614 236.732C637.95 234.407 637.197 231.552 637.497 228.709C637.798 225.866 639.13 223.231 641.243 221.305Z" fill="#FFB6B6"/>
<path id="Vector_38" d="M665.44 240.704L692.685 240.365L696.134 240.318L751.567 239.62C751.567 239.62 766.62 225.259 779.727 210.473L777.89 197.185C776.098 184.144 769.629 172.198 759.686 163.57C740.913 176.114 730.026 200.944 730.026 200.944L695.656 209.165L692.218 209.987L670.862 215.09L665.44 240.704Z" fill="#6C63FF"/>
<path id="Vector_39" d="M804.913 322.38H754.056C754.056 324.559 698.462 326.328 698.462 326.328C697.235 327.251 696.118 328.311 695.13 329.486C692.162 333.025 690.54 337.499 690.55 342.119V345.277C690.552 350.511 692.632 355.531 696.333 359.232C700.035 362.933 705.054 365.013 710.289 365.015H804.913C810.147 365.011 815.165 362.93 818.866 359.229C822.566 355.528 824.648 350.51 824.652 345.277V342.119C824.645 336.886 822.563 331.869 818.863 328.169C815.163 324.469 810.146 322.387 804.913 322.38Z" fill="#393E46"/>
<path id="Vector_40" d="M767.93 364.231H747.402V482.721H767.93V364.231Z" fill="#393E46"/>
<path id="Vector_41" d="M688.976 482C688.976 484.218 720.083 482.858 758.456 482.858C796.828 482.858 827.935 484.218 827.935 482C827.935 479.781 796.828 462.193 758.456 462.193C720.083 462.193 688.976 479.782 688.976 482Z" fill="#393E46"/>
<path id="Vector_42" d="M675.186 468.461L659.908 468.46L652.64 409.531L675.188 409.532L675.186 468.461Z" fill="#FFB6B6"/>
<path id="Vector_43" d="M679.082 483.27L629.82 483.268V482.645C629.82 477.56 631.84 472.683 635.436 469.088C639.032 465.492 643.909 463.472 648.994 463.471H648.995L679.083 463.473L679.082 483.27Z" fill="#2F2E41"/>
<path id="Vector_44" d="M630.031 468.461L614.753 468.46L607.485 409.531L630.033 409.532L630.031 468.461Z" fill="#FFB6B6"/>
<path id="Vector_45" d="M633.927 483.27L584.665 483.268V482.645C584.665 477.56 586.685 472.683 590.281 469.088C593.877 465.492 598.754 463.472 603.839 463.471H603.84L633.928 463.473L633.927 483.27Z" fill="#2F2E41"/>
<path id="Vector_46" d="M766.887 129.2C781.557 129.2 793.451 117.307 793.451 102.636C793.451 87.9653 781.557 76.0721 766.887 76.0721C752.216 76.0721 740.323 87.9653 740.323 102.636C740.323 117.307 752.216 129.2 766.887 129.2Z" fill="#FFB6B6"/>
<path id="Vector_47" d="M809.88 284.642C809.88 284.642 818.793 331.773 784.88 337.775C750.968 343.777 702.014 347.995 702.014 347.995L680.03 450.562L650.496 447.925C650.496 447.925 654.424 324.457 664.084 314.798C673.743 305.138 734.796 276.215 734.796 276.215L809.88 284.642Z" fill="#2F2E41"/>
<path id="Vector_48" d="M743.646 264.89L728.814 279.769C728.814 279.769 621.72 297.019 617.589 321.754C611.351 359.098 603.984 440.306 603.984 440.306L636.183 437.891L648.809 345.58L700.327 333.861L758.941 301.918L743.646 264.89Z" fill="#2F2E41"/>
<path id="Vector_49" d="M792.449 86.7794C789.826 81.8319 786.495 71.9716 781.202 70.1429C778.263 69.1683 775.225 68.5211 772.143 68.2132L763.147 71.6732L768.043 67.8652C767.09 67.8085 766.137 67.762 765.185 67.726L759.115 70.0605L762.221 67.6452C756.562 67.5871 750.721 68.1755 746.336 71.6204C742.598 74.5572 738.894 85.6822 738.296 90.3979C737.655 94.9092 737.879 99.501 738.956 103.928L740.493 105.39C741.031 104.157 741.435 102.87 741.699 101.551C742.25 99.0869 743.309 96.7643 744.807 94.7315C746.305 92.6988 748.211 91.0005 750.402 89.7449L750.485 89.6977C753.064 88.2467 756.192 88.3136 759.148 88.42L773.19 88.9253C776.568 89.0468 780.206 89.2606 782.84 91.3797C784.514 92.9429 785.83 94.8496 786.698 96.969C788.007 99.6104 790.564 109.573 790.564 109.573C790.564 109.573 792.011 107.693 792.705 109.092C793.817 105.44 794.493 101.67 794.719 97.8588C794.94 94.031 794.158 90.2118 792.449 86.7794Z" fill="#2F2E41"/>
<g style="transform: rotate(); transform-origin: right bottom;" id="Waving-hand">
<path id="Vector_50" d="M885.358 114.302C883.663 114.413 882.014 114.895 880.526 115.713C879.037 116.531 877.747 117.666 876.744 119.036C875.742 120.407 875.052 121.981 874.724 123.647C874.396 125.313 874.437 127.031 874.844 128.68L853.483 144.437L859.893 159.754L889.746 137.078C892.471 136.21 894.782 134.372 896.242 131.914C897.702 129.456 898.209 126.548 897.668 123.74C897.127 120.933 895.575 118.422 893.306 116.682C891.038 114.942 888.209 114.095 885.358 114.302Z" fill="#FFB6B6"/>
<path id="Vector_51" d="M881.92 146.47L828.369 205.945C828.369 205.945 802.759 197.747 782.954 188.858L774.056 161.531C771.99 155.191 771.108 148.525 771.455 141.866C798.911 134.56 830.846 161.745 830.846 161.745L870.931 130.346L881.92 146.47Z" fill="#6C63FF"/>
</g>
<path id="Vector_52" d="M756.964 289.035C747.41 285.735 737.531 282.322 726.875 281.041L726.418 280.986L726.544 280.543C737.575 241.812 734.821 217.036 729.416 179.82C728.266 171.792 729.743 163.608 733.627 156.489C737.51 149.37 743.592 143.698 750.964 140.319L751.03 140.289L781.464 138.355L781.533 138.351L803.668 144.861C806.852 145.804 809.639 147.766 811.601 150.444C813.564 153.123 814.595 156.372 814.535 159.692C814.295 171.931 814.804 185.596 815.342 200.063C816.55 232.519 817.799 266.08 810.711 287.855L810.674 287.969L810.58 288.043C804.064 293.35 795.902 296.217 787.499 296.151C777.564 296.151 767.425 292.649 756.964 289.035Z" fill="#6C63FF"/>
<path id="Vector_53" d="M977.912 485.837H1.41522C1.03989 485.837 0.679924 485.687 0.41452 485.422C0.149117 485.157 7.62939e-06 484.797 7.62939e-06 484.421C7.62939e-06 484.046 0.149117 483.686 0.41452 483.421C0.679924 483.155 1.03989 483.006 1.41522 483.006H977.912C978.287 483.006 978.647 483.155 978.912 483.421C979.178 483.686 979.327 484.046 979.327 484.421C979.327 484.797 979.178 485.157 978.912 485.422C978.647 485.687 978.287 485.837 977.912 485.837Z" fill="#CCCCCC"/>
</g>
<g id="Message-bubble" clip-path="url(#clip1_1_78)">
<path id="Vector_54" fill-rule="evenodd" clip-rule="evenodd" d="M817 51.8695H801C801 54.9516 801.871 57.8301 803.381 60.2721C802.006 62.814 800.195 65.1762 798 67.2434C801.276 68.3313 804.945 68.2854 808.38 66.8486C808.872 66.6431 809.347 66.4141 809.804 66.1636C811.967 67.2548 814.412 67.8695 817 67.8695V51.8695Z" fill="white"/>
<g id="Mask group">
<mask id="mask0_1_78" style="mask-type:luminance" maskUnits="userSpaceOnUse" x="798" y="51" width="19" height="17">
<g id="Group">
<path id="Vector_55" fill-rule="evenodd" clip-rule="evenodd" d="M817 51.8695H801C801 54.9516 801.871 57.8301 803.381 60.2721C802.006 62.814 800.195 65.1762 798 67.2434C801.276 68.3313 804.945 68.2854 808.38 66.8486C808.872 66.6431 809.347 66.4141 809.804 66.1636C811.967 67.2548 814.412 67.8695 817 67.8695V51.8695Z" fill="#9BA9B0"/>
</g>
</mask>
<g mask="url(#mask0_1_78)">
<path id="Vector_56" d="M801 51.8695V51.3695H800.5V51.8695H801ZM817 51.8695H817.5V51.3695H817V51.8695ZM803.381 60.2721L803.821 60.51L803.959 60.2554L803.807 60.0092L803.381 60.2721ZM798 67.2434L797.657 66.8795L797.047 67.4539L797.842 67.718L798 67.2434ZM809.804 66.1636L810.029 65.7172L809.794 65.5987L809.563 65.7252L809.804 66.1636ZM817 67.8695V68.3695H817.5V67.8695H817ZM801 52.3695H817V51.3695H801V52.3695ZM803.807 60.0092C802.344 57.6439 801.5 54.856 801.5 51.8695H800.5C800.5 55.0471 801.399 58.0163 802.956 60.5351L803.807 60.0092ZM802.942 60.0342C801.592 62.5286 799.814 64.8483 797.657 66.8795L798.343 67.6074C800.576 65.5041 802.42 63.0994 803.821 60.51L802.942 60.0342ZM797.842 67.718C801.229 68.8424 805.023 68.795 808.574 67.3099L808.188 66.3874C804.868 67.7758 801.324 67.8202 798.158 66.7689L797.842 67.718ZM808.574 67.3099C809.081 67.0976 809.572 66.861 810.044 66.602L809.563 65.7252C809.122 65.9673 808.663 66.1886 808.188 66.3874L808.574 67.3099ZM817 67.3695C814.492 67.3695 812.124 66.774 810.029 65.7172L809.578 66.61C811.81 67.7357 814.332 68.3695 817 68.3695V67.3695ZM816.5 51.8695V67.8695H817.5V51.8695H816.5Z" fill="#222831"/>
</g>
</g>
<path id="Vector_57" d="M801 16C801 7.16343 808.163 0 817 0V52.8695H801V16Z" fill="white"/>
<g id="Mask group_2">
<mask id="mask1_1_78" style="mask-type:luminance" maskUnits="userSpaceOnUse" x="801" y="0" width="16" height="53">
<g id="Group_2">
<path id="Vector_58" d="M801 16C801 7.16343 808.163 0 817 0V52.8695H801V16Z" fill="#9BA9B0"/>
</g>
</mask>
<g mask="url(#mask1_1_78)">
<path id="Vector_59" d="M800.5 16C800.5 6.8873 807.887 -0.5 817 -0.5H817.5L816.5 0.5H817C808.44 0.5 801.5 7.43959 801.5 16H800.5ZM800.5 52.8695V16C800.5 6.8873 807.887 -0.5 817 -0.5V0.5C808.44 0.5 801.5 7.43959 801.5 16V52.8695H800.5ZM817.5 -0.5V52.8695H816.5V0.00766397C816.667 0.00260507 816.833 -1.4573e-08 817 0L817.5 -0.5Z" fill="#222831"/>
</g>
</g>
<path id="Vector_60" d="M816 0H1136C1149.26 0 1160 10.7452 1160 24V44C1160 57.2548 1149.26 68 1136 68H816V0Z" fill="white"/>
<g id="Mask group_3">
<mask id="mask2_1_78" style="mask-type:luminance" maskUnits="userSpaceOnUse" x="816" y="0" width="344" height="68">
<g id="Group_3">
<path id="Vector_61" d="M816 0H1136C1149.26 0 1160 10.7452 1160 24V44C1160 57.2548 1149.26 68 1136 68H816V0Z" fill="#9BA9B0"/>
</g>
</mask>
<g mask="url(#mask2_1_78)">
<path id="Vector_62" d="M816 -0.5H1136C1149.53 -0.5 1160.5 10.469 1160.5 24H1159.5C1159.5 11.0213 1148.98 0.5 1136 0.5H816V-0.5ZM1160.5 44C1160.5 57.531 1149.53 68.5 1136 68.5H816V67.5H1136C1148.98 67.5 1159.5 56.9787 1159.5 44H1160.5ZM1136 -0.5C1149.53 -0.5 1160.5 10.469 1160.5 24V44C1160.5 57.531 1149.53 68.5 1136 68.5V67.5C1148.98 67.5 1159.5 56.9787 1159.5 44V24C1159.5 11.0213 1148.98 0.5 1136 0.5V-0.5Z" fill="#222831"/>
</g>
</g>
<path id="Greetings-msg" d="M819.466 44V23.6364H821.932V32.7045H832.79V23.6364H835.256V44H832.79V34.892H821.932V44H819.466ZM846.278 44.3182C844.806 44.3182 843.537 43.9934 842.469 43.3438C841.409 42.6875 840.59 41.7727 840.013 40.5994C839.443 39.4195 839.158 38.0473 839.158 36.483C839.158 34.9186 839.443 33.5398 840.013 32.3466C840.59 31.1468 841.392 30.2121 842.42 29.5426C843.454 28.8665 844.66 28.5284 846.039 28.5284C846.835 28.5284 847.62 28.661 848.396 28.9261C849.171 29.1913 849.877 29.6222 850.513 30.2188C851.15 30.8087 851.657 31.5909 852.035 32.5653C852.413 33.5398 852.602 34.7396 852.602 36.1648V37.1591H840.829V35.1307H850.215C850.215 34.2689 850.043 33.5 849.698 32.8239C849.36 32.1477 848.876 31.6141 848.246 31.223C847.623 30.8319 846.888 30.6364 846.039 30.6364C845.104 30.6364 844.296 30.8684 843.613 31.3324C842.937 31.7898 842.416 32.3864 842.052 33.1222C841.687 33.858 841.505 34.6468 841.505 35.4886V36.8409C841.505 37.9943 841.704 38.9721 842.102 39.7741C842.506 40.5696 843.066 41.1761 843.782 41.5938C844.498 42.0047 845.33 42.2102 846.278 42.2102C846.894 42.2102 847.451 42.1241 847.948 41.9517C848.452 41.7727 848.886 41.5076 849.251 41.1562C849.615 40.7983 849.897 40.3542 850.096 39.8239L852.363 40.4602C852.124 41.2292 851.723 41.9053 851.16 42.4886C850.596 43.0653 849.9 43.5161 849.072 43.8409C848.243 44.1591 847.312 44.3182 846.278 44.3182ZM858.518 23.6364V44H856.171V23.6364H858.518ZM865.162 23.6364V44H862.816V23.6364H865.162ZM875.665 44.3182C874.286 44.3182 873.076 43.9901 872.036 43.3338C871.001 42.6776 870.193 41.7595 869.609 40.5795C869.033 39.3996 868.744 38.0208 868.744 36.4432C868.744 34.8523 869.033 33.4635 869.609 32.277C870.193 31.0904 871.001 30.169 872.036 29.5128C873.076 28.8565 874.286 28.5284 875.665 28.5284C877.044 28.5284 878.25 28.8565 879.284 29.5128C880.325 30.169 881.134 31.0904 881.71 32.277C882.294 33.4635 882.585 34.8523 882.585 36.4432C882.585 38.0208 882.294 39.3996 881.71 40.5795C881.134 41.7595 880.325 42.6776 879.284 43.3338C878.25 43.9901 877.044 44.3182 875.665 44.3182ZM875.665 42.2102C876.712 42.2102 877.574 41.9418 878.25 41.4048C878.926 40.8679 879.427 40.1619 879.751 39.2869C880.076 38.4119 880.239 37.464 880.239 36.4432C880.239 35.4223 880.076 34.4711 879.751 33.5895C879.427 32.7079 878.926 31.9953 878.25 31.4517C877.574 30.9081 876.712 30.6364 875.665 30.6364C874.617 30.6364 873.756 30.9081 873.08 31.4517C872.403 31.9953 871.903 32.7079 871.578 33.5895C871.253 34.4711 871.091 35.4223 871.091 36.4432C871.091 37.464 871.253 38.4119 871.578 39.2869C871.903 40.1619 872.403 40.8679 873.08 41.4048C873.756 41.9418 874.617 42.2102 875.665 42.2102ZM900.684 28.7273V30.7159H892.77V28.7273H900.684ZM895.076 25.0682H897.423V39.625C897.423 40.2879 897.519 40.785 897.711 41.1165C897.91 41.4413 898.162 41.66 898.467 41.7727C898.779 41.8788 899.107 41.9318 899.451 41.9318C899.71 41.9318 899.922 41.9186 900.088 41.892C900.253 41.8589 900.386 41.8324 900.485 41.8125L900.963 43.9205C900.804 43.9801 900.582 44.0398 900.297 44.0994C900.011 44.1657 899.65 44.1989 899.213 44.1989C898.55 44.1989 897.9 44.0563 897.264 43.7713C896.634 43.4863 896.11 43.0521 895.693 42.4688C895.282 41.8854 895.076 41.1496 895.076 40.2614V25.0682ZM906.889 34.8125V44H904.542V23.6364H906.889V31.1136H907.088C907.446 30.3248 907.983 29.6984 908.699 29.2344C909.421 28.7637 910.382 28.5284 911.582 28.5284C912.623 28.5284 913.534 28.7372 914.316 29.1548C915.099 29.5658 915.705 30.1989 916.136 31.054C916.574 31.9025 916.792 32.983 916.792 34.2955V44H914.446V34.4545C914.446 33.2415 914.131 32.3035 913.501 31.6406C912.878 30.9711 912.013 30.6364 910.906 30.6364C910.137 30.6364 909.448 30.7988 908.838 31.1236C908.234 31.4484 907.757 31.9223 907.406 32.5455C907.061 33.1686 906.889 33.9242 906.889 34.8125ZM927.489 44.3182C926.017 44.3182 924.748 43.9934 923.68 43.3438C922.62 42.6875 921.801 41.7727 921.224 40.5994C920.654 39.4195 920.369 38.0473 920.369 36.483C920.369 34.9186 920.654 33.5398 921.224 32.3466C921.801 31.1468 922.603 30.2121 923.631 29.5426C924.665 28.8665 925.871 28.5284 927.25 28.5284C928.045 28.5284 928.831 28.661 929.607 28.9261C930.382 29.1913 931.088 29.6222 931.724 30.2188C932.361 30.8087 932.868 31.5909 933.246 32.5653C933.624 33.5398 933.812 34.7396 933.812 36.1648V37.1591H922.04V35.1307H931.426C931.426 34.2689 931.254 33.5 930.909 32.8239C930.571 32.1477 930.087 31.6141 929.457 31.223C928.834 30.8319 928.098 30.6364 927.25 30.6364C926.315 30.6364 925.507 30.8684 924.824 31.3324C924.148 31.7898 923.627 32.3864 923.263 33.1222C922.898 33.858 922.716 34.6468 922.716 35.4886V36.8409C922.716 37.9943 922.915 38.9721 923.312 39.7741C923.717 40.5696 924.277 41.1761 924.993 41.5938C925.709 42.0047 926.541 42.2102 927.489 42.2102C928.105 42.2102 928.662 42.1241 929.159 41.9517C929.663 41.7727 930.097 41.5076 930.462 41.1562C930.826 40.7983 931.108 40.3542 931.307 39.8239L933.574 40.4602C933.335 41.2292 932.934 41.9053 932.371 42.4886C931.807 43.0653 931.111 43.5161 930.283 43.8409C929.454 44.1591 928.523 44.3182 927.489 44.3182ZM937.382 44V28.7273H939.649V31.0341H939.808C940.087 30.2784 940.59 29.6652 941.32 29.1946C942.049 28.724 942.871 28.4886 943.786 28.4886C943.958 28.4886 944.173 28.4919 944.432 28.4986C944.69 28.5052 944.886 28.5152 945.018 28.5284V30.9148C944.939 30.8949 944.757 30.8651 944.472 30.8253C944.193 30.7789 943.898 30.7557 943.587 30.7557C942.844 30.7557 942.181 30.9115 941.598 31.223C941.021 31.5279 940.564 31.9522 940.226 32.4957C939.894 33.0327 939.729 33.6458 939.729 34.3352V44H937.382ZM953.739 44.3182C952.267 44.3182 950.998 43.9934 949.93 43.3438C948.87 42.6875 948.051 41.7727 947.474 40.5994C946.904 39.4195 946.619 38.0473 946.619 36.483C946.619 34.9186 946.904 33.5398 947.474 32.3466C948.051 31.1468 948.853 30.2121 949.881 29.5426C950.915 28.8665 952.121 28.5284 953.5 28.5284C954.295 28.5284 955.081 28.661 955.857 28.9261C956.632 29.1913 957.338 29.6222 957.974 30.2188C958.611 30.8087 959.118 31.5909 959.496 32.5653C959.874 33.5398 960.062 34.7396 960.062 36.1648V37.1591H948.29V35.1307H957.676C957.676 34.2689 957.504 33.5 957.159 32.8239C956.821 32.1477 956.337 31.6141 955.707 31.223C955.084 30.8319 954.348 30.6364 953.5 30.6364C952.565 30.6364 951.757 30.8684 951.074 31.3324C950.398 31.7898 949.877 32.3864 949.513 33.1222C949.148 33.858 948.966 34.6468 948.966 35.4886V36.8409C948.966 37.9943 949.165 38.9721 949.562 39.7741C949.967 40.5696 950.527 41.1761 951.243 41.5938C951.959 42.0047 952.791 42.2102 953.739 42.2102C954.355 42.2102 954.912 42.1241 955.409 41.9517C955.913 41.7727 956.347 41.5076 956.712 41.1562C957.076 40.7983 957.358 40.3542 957.557 39.8239L959.824 40.4602C959.585 41.2292 959.184 41.9053 958.621 42.4886C958.057 43.0653 957.361 43.5161 956.533 43.8409C955.704 44.1591 954.773 44.3182 953.739 44.3182ZM966.734 23.6364L966.536 38.2727H964.229L964.03 23.6364H966.734ZM965.382 44.1591C964.892 44.1591 964.471 43.9834 964.119 43.6321C963.768 43.2808 963.592 42.8598 963.592 42.3693C963.592 41.8788 963.768 41.4579 964.119 41.1065C964.471 40.7552 964.892 40.5795 965.382 40.5795C965.873 40.5795 966.294 40.7552 966.645 41.1065C966.996 41.4579 967.172 41.8788 967.172 42.3693C967.172 42.6941 967.089 42.9924 966.923 43.2642C966.764 43.536 966.549 43.7547 966.277 43.9205C966.012 44.0795 965.714 44.1591 965.382 44.1591Z" fill="black"/>
</g>
</g>
<defs>
<clipPath id="clip0_1_78">
<rect width="979.327" height="424.837" fill="white" transform="translate(0 61)"/>
</clipPath>
<clipPath id="clip1_1_78">
<rect width="362" height="68" fill="white" transform="translate(798)"/>
</clipPath>
</defs>
</svg>
